# xmcd
#
# Track frame offsets:
#	183
#	25830
#	41035
#	53058
#	76145
#	91030
#	117495
#	136163
#	151285
#	165045
#	188430
#
# Disc length: 2735
#
# Revision: 1
# Processed by: cddbd v1.5.1PL0 Copyright (c) Steve Scherf et al.
# Submitted via: CDex 1.51
# Normalized: r0:TRMNUM
#
DISCID=720aad0b
DTITLE=Tom Akis - Ballades de Nuit
DYEAR=1992
DGENRE=Blues
TTITLE0=Dis-moi donc qui
TTITLE1=Sale blues
TTITLE2=Laisse-toi aller
TTITLE3=La dernière cigarette
TTITLE4=Docteur
TTITLE5=Ballade de nuit
TTITLE6=Louvoyer
TTITLE7=Nat blues
TTITLE8=Tu prends le train
TTITLE9=Roulez
TTITLE10=Douce vipère
EXTD=YEAR: 1992
EXTT0=
EXTT1=
EXTT2=
EXTT3=
EXTT4=
EXTT5=
EXTT6=
EXTT7=
EXTT8=
EXTT9=
EXTT10=
PLAYORDER=
